<?xml version="1.0" encoding="UTF-8"?>
<svg width="294px" height="97px" viewBox="0 0 294 97" version="1.1" xmlns="http://www.w3.org/2000/svg" xmlns:xlink="http://www.w3.org/1999/xlink">
    <!-- Generator: sketchtool 51.3 (57544) - http://www.bohemiancoding.com/sketch -->
    <title>AF3B8E1B-CBE1-4256-93A8-971232C24FB9</title>
    <desc>Created with sketchtool.</desc>
    <defs>
        <polygon id="path-1" points="40.29 67.3798 49.84 71.9298 219.84 71.9298 229.38 67.3798 259.62 67.3798 269.17 57.8398 269.17 15.5998 259.62 6.0498 229.38 6.0498 219.83 0.4998 49.83 0.4998 40.29 6.0498 10.05 6.0498 0.5 15.5998 0.5 57.8398 10.05 67.3798"></polygon>
        <filter x="-7.3%" y="-27.3%" width="114.5%" height="154.6%" filterUnits="objectBoundingBox" id="filter-2">
            <feOffset dx="0" dy="0" in="SourceAlpha" result="shadowOffsetOuter1"></feOffset>
            <feGaussianBlur stdDeviation="6.5" in="shadowOffsetOuter1" result="shadowBlurOuter1"></feGaussianBlur>
            <feComposite in="shadowBlurOuter1" in2="SourceAlpha" operator="out" result="shadowBlurOuter1"></feComposite>
            <feColorMatrix values="0 0 0 0 0.314369351   0 0 0 0 0.8883757   0 0 0 0 0.864881214  0 0 0 1 0" type="matrix" in="shadowBlurOuter1"></feColorMatrix>
        </filter>
    </defs>
    <g id="Page-1" stroke="none" stroke-width="1" fill="none" fill-rule="evenodd">
        <g id="Home_1" transform="translate(-573.000000, -2746.000000)">
            <g id="Group-16" transform="translate(218.000000, 1963.000000)">
                <g id="Group-6" transform="translate(32.000000, 560.000000)">
                    <g id="Group" transform="translate(14.000000, 235.000000)">
                        <g id="Group-7-Copy-2" transform="translate(321.000000, 0.000000)">
                            <g id="Group-4">
                                <g id="Stroke-2">
                                    <use fill="black" fill-opacity="1" filter="url(#filter-2)" xlink:href="#path-1"></use>
                                    <path stroke="#50E3CE" stroke-width="2" d="M50.0660475,70.9298 L219.613739,70.9298 L229.153739,66.3798 L259.206093,66.3798 L268.17,57.4252795 L268.17,16.0140136 L259.205786,7.0498 L229.110525,7.0498 L219.560525,1.4998 L50.0997194,1.4998 L40.5597194,7.0498 L10.4642136,7.0498 L1.5,16.0140136 L1.5,57.4252795 L10.4639067,66.3798 L40.5160475,66.3798 L50.0660475,70.9298 Z" stroke-linejoin="square" fill="#20C4B5" fill-rule="evenodd"></path>
                                </g>
                            </g>
                        </g>
                    </g>
                </g>
            </g>
        </g>
    </g>
</svg>